<mxfile host="65bd71144e">
    <diagram id="R2lEEEUBdFMjLlhIrx00" name="News Aggregation ER Diagram">
        <mxGraphModel dx="1338" dy="759" grid="1" gridSize="10" guides="1" tooltips="1" connect="1" arrows="1" fold="1" page="1" pageScale="1" pageWidth="1400" pageHeight="1000" background="none" math="0" shadow="0">
            <root>
                <mxCell id="0"/>
                <mxCell id="1" parent="0"/>                <mxCell id="2" value="News Aggregation System - Entity Relationship Diagram" style="text;html=1;strokeColor=none;fillColor=none;align=center;verticalAlign=middle;whiteSpace=wrap;rounded=0;fontSize=16;fontStyle=1" parent="1" vertex="1">
                    <mxGeometry x="400" y="20" width="600" height="30" as="geometry"/>
                </mxCell>
                <mxCell id="roles" value="roles" style="swimlane;childLayout=stackLayout;horizontal=1;startSize=30;horizontalStack=0;rounded=1;fontSize=14;fontStyle=0;strokeWidth=2;resizeParent=0;resizeLast=1;shadow=0;dashed=0;align=center;fillColor=#dae8fc;strokeColor=#6c8ebf;" parent="1" vertex="1">
                    <mxGeometry x="15" y="140" width="180" height="140" as="geometry"/>
                </mxCell>
                <mxCell id="roles_attrs" value="+ id (PK)&#xa;+ name&#xa;+ description&#xa;+ created_at" style="align=left;strokeColor=none;fillColor=none;spacingLeft=4;fontSize=12;verticalAlign=top;resizable=0;rotatable=0;part=1;" parent="roles" vertex="1">
                    <mxGeometry y="30" width="180" height="110" as="geometry"/>
                </mxCell><mxCell id="11" value="users" style="swimlane;childLayout=stackLayout;horizontal=1;startSize=30;horizontalStack=0;rounded=1;fontSize=14;fontStyle=0;strokeWidth=2;resizeParent=0;resizeLast=1;shadow=0;dashed=0;align=center;fillColor=#dae8fc;strokeColor=#6c8ebf;" parent="1" vertex="1">
                    <mxGeometry x="255" y="140" width="180" height="220" as="geometry"/>
                </mxCell>
                <mxCell id="12" value="+ id (PK)&#xa;+ role_id (FK)&#xa;+ username&#xa;+ email&#xa;+ password&#xa;+ is_active&#xa;+ is_deleted&#xa;+ created_at&#xa;+ updated_at" style="align=left;strokeColor=none;fillColor=none;spacingLeft=4;fontSize=12;verticalAlign=top;resizable=0;rotatable=0;part=1;" parent="11" vertex="1">
                    <mxGeometry y="30" width="180" height="190" as="geometry"/>
                </mxCell>
                <mxCell id="21" value="user_preferences" style="swimlane;childLayout=stackLayout;horizontal=1;startSize=30;horizontalStack=0;rounded=1;fontSize=14;fontStyle=0;strokeWidth=2;resizeParent=0;resizeLast=1;shadow=0;dashed=0;align=center;fillColor=#dae8fc;strokeColor=#6c8ebf;" parent="1" vertex="1">
                    <mxGeometry x="495" y="140" width="180" height="160" as="geometry"/>
                </mxCell>
                <mxCell id="22" value="+ id (PK)&#xa;+ user_id (FK)&#xa;+ category_id (FK)&#xa;+ is_subscribed&#xa;+ created_at&#xa;+ updated_at" style="align=left;strokeColor=none;fillColor=none;spacingLeft=4;fontSize=12;verticalAlign=top;resizable=0;rotatable=0;part=1;" parent="21" vertex="1">
                    <mxGeometry y="30" width="180" height="130" as="geometry"/>
                </mxCell>
                <mxCell id="13" value="categories" style="swimlane;childLayout=stackLayout;horizontal=1;startSize=30;horizontalStack=0;rounded=1;fontSize=14;fontStyle=0;strokeWidth=2;resizeParent=0;resizeLast=1;shadow=0;dashed=0;align=center;fillColor=#dae8fc;strokeColor=#6c8ebf;" parent="1" vertex="1">
                    <mxGeometry x="735" y="140" width="180" height="160" as="geometry"/>
                </mxCell>
                <mxCell id="14" value="+ id (PK)&#xa;+ name&#xa;+ slug&#xa;+ description&#xa;+ is_active&#xa;+ created_at" style="align=left;strokeColor=none;fillColor=none;spacingLeft=4;fontSize=12;verticalAlign=top;resizable=0;rotatable=0;part=1;" parent="13" vertex="1">
                    <mxGeometry y="30" width="180" height="130" as="geometry"/>
                </mxCell>
                <mxCell id="27" value="keywords" style="swimlane;childLayout=stackLayout;horizontal=1;startSize=30;horizontalStack=0;rounded=1;fontSize=14;fontStyle=0;strokeWidth=2;resizeParent=0;resizeLast=1;shadow=0;dashed=0;align=center;fillColor=#dae8fc;strokeColor=#6c8ebf;" parent="1" vertex="1">
                    <mxGeometry x="255" y="400" width="180" height="160" as="geometry"/>
                </mxCell>
                <mxCell id="28" value="+ id (PK)&#xa;+ user_id (FK)&#xa;+ keyword&#xa;+ is_active&#xa;+ created_at" style="align=left;strokeColor=none;fillColor=none;spacingLeft=4;fontSize=12;verticalAlign=top;resizable=0;rotatable=0;part=1;" parent="27" vertex="1">
                    <mxGeometry y="30" width="180" height="130" as="geometry"/>
                </mxCell>
                <mxCell id="17" value="articles" style="swimlane;childLayout=stackLayout;horizontal=1;startSize=30;horizontalStack=0;rounded=1;fontSize=14;fontStyle=0;strokeWidth=2;resizeParent=0;resizeLast=1;shadow=0;dashed=0;align=center;fillColor=#dae8fc;strokeColor=#6c8ebf;" parent="1" vertex="1">
                    <mxGeometry x="705" y="350" width="180" height="280" as="geometry"/>
                </mxCell>                <mxCell id="18" value="+ id (PK)&#xa;+ uuid&#xa;+ title&#xa;+ content&#xa;+ author&#xa;+ source&#xa;+ original_url&#xa;+ published_at&#xa;+ scraped_at" style="align=left;strokeColor=none;fillColor=none;spacingLeft=4;fontSize=12;verticalAlign=top;resizable=0;rotatable=0;part=1;" parent="17" vertex="1">
                    <mxGeometry y="30" width="180" height="250" as="geometry"/>
                </mxCell>
                <mxCell id="19" value="article_categories" style="swimlane;childLayout=stackLayout;horizontal=1;startSize=30;horizontalStack=0;rounded=1;fontSize=14;fontStyle=0;strokeWidth=2;resizeParent=0;resizeLast=1;shadow=0;dashed=0;align=center;fillColor=#dae8fc;strokeColor=#6c8ebf;" parent="1" vertex="1">
                    <mxGeometry x="975" y="400" width="180" height="140" as="geometry"/>
                </mxCell>
                <mxCell id="20" value="+ id (PK)&#xa;+ article_id (FK)&#xa;+ category_id (FK)&#xa;+ created_at" style="align=left;strokeColor=none;fillColor=none;spacingLeft=4;fontSize=12;verticalAlign=top;resizable=0;rotatable=0;part=1;" parent="19" vertex="1">
                    <mxGeometry y="30" width="180" height="110" as="geometry"/>
                </mxCell>
                <mxCell id="29" value="notifications" style="swimlane;childLayout=stackLayout;horizontal=1;startSize=30;horizontalStack=0;rounded=1;fontSize=14;fontStyle=0;strokeWidth=2;resizeParent=0;resizeLast=1;shadow=0;dashed=0;align=center;fillColor=#dae8fc;strokeColor=#6c8ebf;" parent="1" vertex="1">
                    <mxGeometry x="235" y="640" width="180" height="180" as="geometry"/>
                </mxCell>
                <mxCell id="30" value="+ id (PK)&#xa;+ user_id (FK)&#xa;+ article_id (FK)&#xa;+ category_id (FK)&#xa;+ keyword_id (FK)&#xa;+ is_read&#xa;+ created_at" style="align=left;strokeColor=none;fillColor=none;spacingLeft=4;fontSize=12;verticalAlign=top;resizable=0;rotatable=0;part=1;" parent="29" vertex="1">
                    <mxGeometry y="30" width="180" height="150" as="geometry"/>
                </mxCell>
                <mxCell id="23" value="bookmarks" style="swimlane;childLayout=stackLayout;horizontal=1;startSize=30;horizontalStack=0;rounded=1;fontSize=14;fontStyle=0;strokeWidth=2;resizeParent=0;resizeLast=1;shadow=0;dashed=0;align=center;fillColor=#dae8fc;strokeColor=#6c8ebf;" parent="1" vertex="1">
                    <mxGeometry x="495" y="810" width="180" height="140" as="geometry"/>
                </mxCell>
                <mxCell id="24" value="+ id (PK)&#xa;+ user_id (FK)&#xa;+ article_id (FK)&#xa;+ created_at" style="align=left;strokeColor=none;fillColor=none;spacingLeft=4;fontSize=12;verticalAlign=top;resizable=0;rotatable=0;part=1;" parent="23" vertex="1">
                    <mxGeometry y="30" width="180" height="110" as="geometry"/>
                </mxCell>
                <mxCell id="25" value="likes" style="swimlane;childLayout=stackLayout;horizontal=1;startSize=30;horizontalStack=0;rounded=1;fontSize=14;fontStyle=0;strokeWidth=2;resizeParent=0;resizeLast=1;shadow=0;dashed=0;align=center;fillColor=#dae8fc;strokeColor=#6c8ebf;" parent="1" vertex="1">
                    <mxGeometry x="735" y="720" width="180" height="160" as="geometry"/>
                </mxCell>
                <mxCell id="26" value="+ id (PK)&#xa;+ user_id (FK)&#xa;+ article_id (FK)&#xa;+ like_type&#xa;+ created_at&#xa;+ updated_at" style="align=left;strokeColor=none;fillColor=none;spacingLeft=4;fontSize=12;verticalAlign=top;resizable=0;rotatable=0;part=1;" parent="25" vertex="1">
                    <mxGeometry y="30" width="180" height="130" as="geometry"/>
                </mxCell>                <mxCell id="31" value="" style="edgeStyle=entityRelationEdgeStyle;fontSize=12;html=1;endArrow=ERoneToMany;startArrow=ERmandOne;rounded=0;entryX=0;entryY=0.5;entryDx=0;entryDy=0;exitX=1;exitY=0.3;exitDx=0;exitDy=0;" parent="1" source="12" target="22" edge="1">
                    <mxGeometry width="100" height="100" relative="1" as="geometry">
                        <mxPoint x="445" y="220" as="sourcePoint"/>
                        <mxPoint x="485" y="220" as="targetPoint"/>
                    </mxGeometry>
                </mxCell>
                <mxCell id="roles_users" value="" style="edgeStyle=entityRelationEdgeStyle;fontSize=12;html=1;endArrow=ERoneToMany;startArrow=ERmandOne;rounded=0;exitX=1;exitY=0.5;exitDx=0;exitDy=0;entryX=0;entryY=0.2;entryDx=0;entryDy=0;" parent="1" source="roles_attrs" target="12" edge="1">
                    <mxGeometry width="100" height="100" relative="1" as="geometry">
                        <mxPoint x="205" y="200" as="sourcePoint"/>
                        <mxPoint x="245" y="190" as="targetPoint"/>
                    </mxGeometry>
                </mxCell>
                <mxCell id="32" value="" style="edgeStyle=entityRelationEdgeStyle;fontSize=12;html=1;endArrow=ERoneToMany;startArrow=ERmandOne;rounded=0;entryX=1;entryY=0.5;entryDx=0;entryDy=0;exitX=0;exitY=0.5;exitDx=0;exitDy=0;" parent="1" source="14" target="22" edge="1">
                    <mxGeometry width="100" height="100" relative="1" as="geometry">
                        <mxPoint x="725" y="220" as="sourcePoint"/>
                        <mxPoint x="685" y="220" as="targetPoint"/>
                    </mxGeometry>
                </mxCell>
                <mxCell id="40" value="" style="edgeStyle=entityRelationEdgeStyle;fontSize=12;html=1;endArrow=ERoneToMany;startArrow=ERmandOne;rounded=0;exitX=0.5;exitY=1;exitDx=0;exitDy=0;entryX=0.5;entryY=0;entryDx=0;entryDy=0;" parent="1" source="12" target="27" edge="1">
                    <mxGeometry width="100" height="100" relative="1" as="geometry">
                        <mxPoint x="345" y="370" as="sourcePoint"/>
                        <mxPoint x="345" y="390" as="targetPoint"/>
                    </mxGeometry>
                </mxCell>
                <mxCell id="34" value="" style="edgeStyle=entityRelationEdgeStyle;fontSize=12;html=1;endArrow=ERoneToMany;startArrow=ERmandOne;rounded=0;exitX=1;exitY=0.3;exitDx=0;exitDy=0;entryX=0;entryY=0.5;entryDx=0;entryDy=0;" parent="1" source="18" target="20" edge="1">
                    <mxGeometry width="100" height="100" relative="1" as="geometry">
                        <mxPoint x="925" y="470" as="sourcePoint"/>
                        <mxPoint x="965" y="470" as="targetPoint"/>
                    </mxGeometry>
                </mxCell>
                <mxCell id="35" value="" style="edgeStyle=entityRelationEdgeStyle;fontSize=12;html=1;endArrow=ERoneToMany;startArrow=ERmandOne;rounded=0;exitX=0.5;exitY=1;exitDx=0;exitDy=0;entryX=0.5;entryY=0;entryDx=0;entryDy=0;" parent="1" source="14" target="19" edge="1">
                    <mxGeometry width="100" height="100" relative="1" as="geometry">
                        <mxPoint x="825" y="310" as="sourcePoint"/>
                        <mxPoint x="1065" y="390" as="targetPoint"/>
                    </mxGeometry>
                </mxCell>
                <mxCell id="41" value="" style="edgeStyle=entityRelationEdgeStyle;fontSize=12;html=1;endArrow=ERoneToMany;startArrow=ERmandOne;rounded=0;exitX=0.2;exitY=1;exitDx=0;exitDy=0;entryX=0.5;entryY=0;entryDx=0;entryDy=0;" parent="1" source="12" target="29" edge="1">
                    <mxGeometry width="100" height="100" relative="1" as="geometry">
                        <mxPoint x="295" y="370" as="sourcePoint"/>
                        <mxPoint x="345" y="590" as="targetPoint"/>
                        <Array as="points">
                            <mxPoint x="245" y="410"/>
                            <mxPoint x="245" y="430"/>
                            <mxPoint x="195" y="490"/>
                            <mxPoint x="235" y="480"/>
                            <mxPoint x="245" y="560"/>
                            <mxPoint x="235" y="560"/>
                        </Array>
                    </mxGeometry>
                </mxCell>
                <mxCell id="44" value="" style="edgeStyle=entityRelationEdgeStyle;fontSize=12;html=1;endArrow=ERoneToMany;startArrow=ERzeroToOne;rounded=0;exitX=0.5;exitY=1;exitDx=0;exitDy=0;entryX=0.5;entryY=0;entryDx=0;entryDy=0;" parent="1" source="28" target="30" edge="1">
                    <mxGeometry width="100" height="100" relative="1" as="geometry">
                        <mxPoint x="345" y="570" as="sourcePoint"/>
                        <mxPoint x="345" y="590" as="targetPoint"/>
                    </mxGeometry>
                </mxCell>
                <mxCell id="36" value="" style="edgeStyle=entityRelationEdgeStyle;fontSize=12;html=1;endArrow=ERoneToMany;startArrow=ERmandOne;rounded=0;exitX=0.8;exitY=1;exitDx=0;exitDy=0;entryX=0;entryY=0.25;entryDx=0;entryDy=0;" parent="1" source="12" target="24" edge="1">
                    <mxGeometry width="100" height="100" relative="1" as="geometry">
                        <mxPoint x="395" y="370" as="sourcePoint"/>
                        <mxPoint x="485" y="640" as="targetPoint"/>
                    </mxGeometry>
                </mxCell>
                <mxCell id="37" value="" style="edgeStyle=entityRelationEdgeStyle;fontSize=12;html=1;endArrow=ERoneToMany;startArrow=ERmandOne;rounded=0;exitX=0.3;exitY=1;exitDx=0;exitDy=0;entryX=0.5;entryY=0;entryDx=0;entryDy=0;" parent="1" source="18" target="23" edge="1">
                    <mxGeometry width="100" height="100" relative="1" as="geometry">
                        <mxPoint x="789" y="690" as="sourcePoint"/>
                        <mxPoint x="585" y="610" as="targetPoint"/>
                    </mxGeometry>
                </mxCell>
                <mxCell id="38" value="" style="edgeStyle=entityRelationEdgeStyle;fontSize=12;html=1;endArrow=ERoneToMany;startArrow=ERmandOne;rounded=0;exitX=1;exitY=1;exitDx=0;exitDy=0;entryX=0;entryY=0.25;entryDx=0;entryDy=0;" parent="1" source="12" target="26" edge="1">
                    <mxGeometry width="100" height="100" relative="1" as="geometry">
                        <mxPoint x="445" y="370" as="sourcePoint"/>
                        <mxPoint x="725" y="750" as="targetPoint"/>
                    </mxGeometry>
                </mxCell>
                <mxCell id="39" value="" style="edgeStyle=entityRelationEdgeStyle;fontSize=12;html=1;endArrow=ERoneToMany;startArrow=ERmandOne;rounded=0;exitX=0.5;exitY=1;exitDx=0;exitDy=0;entryX=0.5;entryY=0;entryDx=0;entryDy=0;" parent="1" source="18" target="25" edge="1">
                    <mxGeometry width="100" height="100" relative="1" as="geometry">
                        <mxPoint x="825" y="690" as="sourcePoint"/>
                        <mxPoint x="825" y="710" as="targetPoint"/>
                    </mxGeometry>
                </mxCell>
                <mxCell id="42" value="" style="edgeStyle=entityRelationEdgeStyle;fontSize=12;html=1;endArrow=ERoneToMany;startArrow=ERzeroToOne;rounded=0;exitX=0;exitY=0.8;exitDx=0;exitDy=0;entryX=1;entryY=0.3;entryDx=0;entryDy=0;" parent="1" source="18" target="30" edge="1">
                    <mxGeometry width="100" height="100" relative="1" as="geometry">
                        <mxPoint x="725" y="640" as="sourcePoint"/>
                        <mxPoint x="445" y="680" as="targetPoint"/>
                    </mxGeometry>
                </mxCell>
                <mxCell id="43" value="" style="edgeStyle=entityRelationEdgeStyle;fontSize=12;html=1;endArrow=ERoneToMany;startArrow=ERzeroToOne;rounded=0;exitX=0;exitY=1;exitDx=0;exitDy=0;entryX=1;entryY=0.7;entryDx=0;entryDy=0;" parent="1" source="14" target="30" edge="1">
                    <mxGeometry width="100" height="100" relative="1" as="geometry">
                        <mxPoint x="725" y="310" as="sourcePoint"/>
                        <mxPoint x="445" y="740" as="targetPoint"/>
                    </mxGeometry>
                </mxCell>
            </root>
        </mxGraphModel>
    </diagram>
</mxfile>